PathFileType	4	(X/Y/Z)	Kaydara	
DataRate	CameraRate	NumFrames	NumMarkers	Units	OrigDataRate	OrigDataStartFrame	OrigNumFrames	
240.00	240.00	4	72	mm	240.00	315	359	
Frame#	Time	Hips			RightUpLeg			RightLeg			RightFoot			RightFoot_End			LeftUpLeg			LeftLeg			LeftFoot			LeftFoot_End			Spine			Spine1			Spine2			Spine3			Neck			Head			Head_End			RightShoulder			RightArm			RightForeArm			RightHand			RightHandThumb1			RightHandThumb2			RightHandThumb3			RightHandThumb3_End			RightInHandIndex			RightHandIndex1			RightHandIndex2			RightHandIndex3			RightHandIndex3_End			RightInHandMiddle			RightHandMiddle1			RightHandMiddle2			RightHandMiddle3			RightHandMiddle3_End			RightInHandRing			RightHandRing1			RightHandRing2			RightHandRing3			RightHandRing3_End			RightInHandPinky			RightHandPinky1			RightHandPinky2			RightHandPinky3			RightHandPinky3_End			LeftShoulder			LeftArm			LeftForeArm			LeftHand			LeftHandThumb1			LeftHandThumb2			LeftHandThumb3			LeftHandThumb3_End			LeftInHandIndex			LeftHandIndex1			LeftHandIndex2			LeftHandIndex3			LeftHandIndex3_End			LeftInHandMiddle			LeftHandMiddle1			LeftHandMiddle2			LeftHandMiddle3			LeftHandMiddle3_End			LeftInHandRing			LeftHandRing1			LeftHandRing2			LeftHandRing3			LeftHandRing3_End			LeftInHandPinky			LeftHandPinky1			LeftHandPinky2			LeftHandPinky3			LeftHandPinky3_End			
		X1	Y1	Z1	X2	Y2	Z2	X3	Y3	Z3	X4	Y4	Z4	X5	Y5	Z5	X6	Y6	Z6	X7	Y7	Z7	X8	Y8	Z8	X9	Y9	Z9	X10	Y10	Z10	X11	Y11	Z11	X12	Y12	Z12	X13	Y13	Z13	X14	Y14	Z14	X15	Y15	Z15	X16	Y16	Z16	X17	Y17	Z17	X18	Y18	Z18	X19	Y19	Z19	X20	Y20	Z20	X21	Y21	Z21	X22	Y22	Z22	X23	Y23	Z23	X24	Y24	Z24	X25	Y25	Z25	X26	Y26	Z26	X27	Y27	Z27	X28	Y28	Z28	X29	Y29	Z29	X30	Y30	Z30	X31	Y31	Z31	X32	Y32	Z32	X33	Y33	Z33	X34	Y34	Z34	X35	Y35	Z35	X36	Y36	Z36	X37	Y37	Z37	X38	Y38	Z38	X39	Y39	Z39	X40	Y40	Z40	X41	Y41	Z41	X42	Y42	Z42	X43	Y43	Z43	X44	Y44	Z44	X45	Y45	Z45	X46	Y46	Z46	X47	Y47	Z47	X48	Y48	Z48	X49	Y49	Z49	X50	Y50	Z50	X51	Y51	Z51	X52	Y52	Z52	X53	Y53	Z53	X54	Y54	Z54	X55	Y55	Z55	X56	Y56	Z56	X57	Y57	Z57	X58	Y58	Z58	X59	Y59	Z59	X60	Y60	Z60	X61	Y61	Z61	X62	Y62	Z62	X63	Y63	Z63	X64	Y64	Z64	X65	Y65	Z65	X66	Y66	Z66	X67	Y67	Z67	X68	Y68	Z68	X69	Y69	Z69	X70	Y70	Z70	X71	Y71	Z71	X72	Y72	Z72	

315	1.308	1198.941	914.58397	126.699	1242.1057643631143	884.3638405093018	50.4253348898167	1144.383902383545	490.80910682778546	-54.58940798048841	1143.343370112261	99.85302182980296	-133.46539657596944	992.3600978647463	22.774766752256788	-45.14024939996621	1168.693966571621	918.372827518098	215.29678861930373	1077.544006557461	515.4038424865786	283.8737687269216	994.140001664111	89.63737448025212	355.5523971890135	873.8379679739178	6.186618231841838	232.66772397749276	1139.0378062722348	1033.8383041806367	75.1717015316205	1079.4841777940821	1089.4282443345314	22.247142987246452	1014.2274098244197	1140.4942896641448	-35.82437008833448	947.473600882106	1178.9202496893056	-95.06897404904987	875.0069127817837	1220.32624887112	-156.81690178984982	807.7198775004292	1258.8881464139224	-210.6523642502825	674.4712849826268	1342.7998823941043	-233.5861850059151	909.887779770207	1191.1083349794171	-158.97851476860643	912.919443701039	1104.4341292144327	-235.24893012450926	883.6650232158119	945.5945445056482	-75.3923243766277	794.0499977797299	823.7193637961284	-11.409773042618358	790.7162896837052	834.7168140653803	-1.87319697568306	790.8007927863721	833.4028783302518	9.863718887411062	790.8483706944116	828.9371719777778	18.090677053011767	790.8783873444856	822.1767869787543	24.99479243963609	789.9546179580414	823.1852075977072	-0.8390446725350833	785.4529340738432	808.3862561564664	15.65342637749012	784.5389566888105	797.0853307450986	27.302268603315014	785.5471287227684	793.5500923006472	33.31538389585469	787.4449036286151	792.978453770181	37.463439178895904	790.1860833641681	813.9953690180286	-1.2597539643665692	785.9198494695022	794.5904135057249	14.598892854904106	784.9704388407805	781.09303487414	27.20131617077186	786.2097566581474	776.2684621287463	34.40369910302974	788.2974433267557	775.3710202781743	38.91704130087874	790.4409989262656	807.8644162055383	-1.9759569495700373	786.7701262011755	785.1048368976175	11.620360028044615	785.9985742098904	772.1796337712483	22.46847162191706	787.2237042222921	766.9094970780795	29.34338828295066	789.2007490053888	765.7735424171392	33.55279527520472	791.0503227701662	801.3527817047889	-3.294094856405276	787.9787689175778	776.405027447832	8.375394996896478	787.4644214047491	764.3433375167921	16.79035229131907	788.4081020561551	759.6712907039055	21.673470451663675	790.1882413906245	758.1884968662309	25.32664737676006	888.5929202941275	1222.6071387943507	-112.70176225740376	869.9158696651143	1257.7200806228952	-6.984698209912012	899.282960835057	1044.1622724032768	23.30692470470449	833.8165055580334	850.4812455101569	-1.076559168863454	822.0382763372237	856.3484494224133	-4.096309770698373	815.0121109733284	845.5365439791982	-13.596054915119295	810.4771226004651	834.6994873387899	-19.69909732592813	807.0028212620923	822.8354908744043	-24.348440705801544	821.6674068121823	845.6586654215473	-1.7426658132139132	806.9130229504027	823.2956710196437	-4.295208489611321	799.7101150865461	804.3736654316265	-10.308589719554455	797.7675123024898	795.1954465003648	-16.592310082424845	797.8698510104416	789.3427112923505	-23.5101713392569	823.3004448957014	837.2810764932344	-0.4610744252615113	809.7919074384977	810.9383881845024	-2.2563246341272536	802.1992582939807	789.2536483183835	-8.64602821207398	799.98379168358	777.6828217370777	-16.144531736895466	800.158100775553	771.0369406215318	-23.673781615399495	824.7989707217732	831.9410051241764	0.5553735500674466	813.9006703111828	803.7206739713282	-0.036982913600161815	807.5776073783469	783.8016040386235	-5.428063706883799	805.5971288920315	772.0997263485907	-12.56632665029967	805.8351844817705	765.5945994594534	-19.60087795169059	827.2033992695056	826.370827895384	1.4395242614175854	818.5786954051824	797.0730692416116	1.5943601391910693	814.0229480404711	779.656565208481	-2.44233697605127	812.8238835148575	770.4119770449133	-7.513429452276558	813.1760591582683	764.2413533154739	-13.666871272370493
316	1.313	1198.941	914.58397	126.699	1241.862545985218	884.1775463806447	50.36371398920893	1144.0547072356944	490.6934522143558	-54.83845045462067	1143.368552246191	99.74660084604251	-133.75658266692432	992.3903323454446	22.648596967468745	-45.44016188995862	1168.9245512073553	918.5558138278677	215.3649334268666	1077.9555626040287	515.5449897076442	283.9373714318722	994.3968733385656	89.73934166042686	355.2059113970904	874.119133103537	6.272181944793762	232.3086071241744	1139.1051123987768	1033.8620364572823	75.14620520105355	1079.5949947307338	1089.4836169369366	22.202551459814984	1014.3747659870539	1140.569878488183	-35.89430964630074	947.6409826437205	1178.9899375063728	-95.16551032322221	875.1940778519072	1220.3914836061942	-156.93986796248515	807.923550001647	1258.9526345223803	-210.79661393569947	674.7068998247498	1342.8979709056275	-233.80334467763024	910.0660844018258	1191.127832949365	-159.11035088822922	913.0170046493112	1104.1289550035285	-235.3847495425	883.1072369960189	944.3713062086683	-75.6035760069889	793.5484222475	821.2351109676159	-11.049071785695086	790.2659037385125	832.6237127721107	-1.6578113574361508	790.1938856353462	831.4932167438485	10.44013651377837	790.0918886523928	827.170274625712	19.0024404306749	789.9625077791782	820.541752337938	26.257914723225568	789.3711626352106	821.2156525638302	-0.36059298388887595	784.5607165030196	807.1124673248146	16.728890785628483	783.3909588735362	796.1150142749692	28.923639807935185	784.2746620954467	792.6030156508162	35.23305209355653	786.0927166616813	791.9390282851891	39.597296704250276	789.5010936401574	812.0338536911954	-0.5676269479707592	784.8787925015615	793.3119215401957	15.988863905431675	783.637832249746	780.1442593041259	29.213385702871626	784.7209930782551	775.3470447266577	36.785924887558366	786.71856604371	774.348228739191	41.54197484262728	789.6922390710778	805.8928958715352	-1.1487662660152884	785.6471613395722	783.742818341867	13.188285698034202	784.6093257526004	771.1024399980914	24.604527308534472	785.6773950957277	765.8573366997134	31.850254916118004	787.5666279075297	764.6254274015798	36.294393334533076	790.2363189492462	799.3332381706911	-2.3233555760168447	786.7815221718222	774.9221026410052	10.112019300515392	786.0365984234352	763.0818354764804	19.019120627007254	786.857318098504	758.4248176197387	24.190693119251097	788.5548544022361	756.8551793438216	28.0621622500109	888.7763329222981	1222.7226668500791	-112.79808083783992	870.0776162646375	1258.0651246112045	-6.891526218296987	897.9701095313716	1043.2628337005524	22.052650901688725	830.3620629736232	851.0579858533958	1.0493052636315556	818.3315430368561	855.7541494301229	-2.3940691473831093	811.6849742407786	844.2068328085265	-12.338648699870436	807.5279842598221	832.9325705469408	-18.72687388278814	804.4659997123961	820.7681963656199	-23.592918086200626	818.316315762695	845.1863908428236	0.012144356294042424	804.2651316345246	821.6676447436358	-3.0303893372057984	797.7041780722241	802.1504038308731	-9.402220442594146	796.0973054651672	792.7455389899451	-15.900390581523787	796.4347809391511	786.801929901525	-22.990077256369815	820.2412063763579	837.0627637396971	1.376864493629577	807.5763642739239	809.7300932656223	-0.8513495021548652	800.7206406009936	787.433364229786	-7.61965682255646	798.927696370049	775.6070950005383	-15.370864561223886	799.3677782400247	768.8705386977734	-23.085202165859844	821.927320321869	831.9297461427936	2.464785833478298	811.9460282227255	802.9964742802441	1.5471480898912837	806.3011676980663	782.5839304745389	-4.16042643426484	804.7473088863534	770.6568634567245	-11.535282337822292	805.244306167279	764.0765231248402	-18.740460616130413	824.5328299054469	826.6463666763536	3.4436127633566587	816.8711444727583	796.8649001876664	3.359123771214345	812.9105005661872	779.118648536184	-0.9085427798065195	812.0477813527282	769.7414528678418	-6.141347996271259	812.6438182114993	763.522416630015	-12.439679988355973
317	1.317	1198.941	914.58397	126.699	1241.654250853001	884.0082686380463	50.31367917486497	1143.7645825884772	490.5925632262096	-55.07093943992872	1143.404825427897	99.65590323163782	-134.03613476825572	992.4303088761949	22.538033166266853	-45.730819910367835	1169.120404420631	918.7227129155004	215.42319500451296	1078.3126250796447	515.6730034379285	283.9818036954761	994.6085128308797	89.83236846151594	354.87543758099946	874.3539585546007	6.353966034126777	231.9630819692576	1139.170019074275	1033.8807707371218	75.11253206848997	1079.697110668093	1089.52518528136	22.148182213752932	1014.5074639610112	1140.62532258731	-35.972562905402874	947.7885583259034	1179.039172892038	-95.26470253704004	875.3564478533937	1220.435406878179	-157.06014764185917	808.0987517438398	1258.994870697813	-210.9342108401398	674.9094677335261	1342.999342334576	-233.92852548117705	910.2104539840226	1191.1172065138628	-159.23656601129062	913.0214305766626	1103.7782301258317	-235.47527003305623	882.5031873044566	943.3898318195024	-75.49692525625892	792.9438005043196	819.127928218101	-10.12546031010423	789.4474456765572	830.3445436084497	-0.7185964026180458	789.2897865542523	829.2356729313279	11.683869015322228	789.1588712688907	824.9569596766022	20.482353836371416	789.0316474687801	818.3902565475087	27.95534957862685	788.637176123328	819.0127461132709	0.64583931421119	783.7690068351475	804.9256499701916	18.040842994933804	782.5912202194233	794.006230269908	30.55862432789311	783.4670259734733	790.5544352851307	37.08611293121925	785.2765943438279	789.9481599914601	41.64249949759495	788.8541862966233	809.9128934146078	0.49900118607414656	784.2226761055331	791.2509540640182	17.386026288031307	782.9846647247845	778.1792974558109	30.9701333992997	784.0639339432264	773.4599109075704	38.809170609301376	786.054938615066	772.5267717958383	43.77712785480709	789.1081916703612	803.828926933424	-0.04830720563207613	785.1090243442173	781.7806783287	14.611697683160694	784.0857595995246	769.2349794330331	26.34809731870215	785.156431317511	764.0707831565874	33.8544652368908	787.0425189996256	762.9033938624012	38.49953201440616	789.7274711416877	797.3383262059684	-1.1856382441378313	786.3606563293837	773.0615321659415	11.565985070372147	785.6459126510409	761.3137875385147	20.738554725134193	786.4774854751793	756.7238718556828	26.104650218383142	788.1773873838457	755.2160359416489	30.156638952152445	888.9477846984784	1222.8264291834682	-112.89851723358632	870.2804529522733	1258.4561267271567	-6.8305845476742455	897.3969213761835	1042.8890524332046	21.99884958375985	829.9827329037732	850.4403992391219	2.1076816824637215	817.7759448141503	854.5257465562648	-1.5616801164419511	811.2638645874079	842.6524948850902	-11.765045422731985	807.2582981381589	831.1937598857323	-18.313157781151105	804.3719797744242	818.9119770338561	-23.29510377955344	817.9372965294235	844.029283222663	0.9032268798244774	804.1629322792722	819.9523685040488	-2.3479068081885615	797.8711510953414	800.1807255077434	-8.899809535279594	796.4050859950139	790.699938393141	-15.529472183651912	796.8412214480553	784.7489606224401	-22.74117216397397	820.0133288005829	836.0470950579636	2.328837948910879	807.7002028682989	808.246485470985	-0.06987230958519941	801.157324664745	785.6927801206176	-7.026003446631075	799.5434477453857	773.784827488135	-14.93169325830625	800.0959502994302	767.0450174324363	-22.7775279524622	821.7988076165036	831.0270727469828	3.46555024501985	812.2179732256176	801.7690009612421	2.4387774633870762	806.8648072270169	781.1543369144832	-3.4233870650160476	805.4937600114881	769.1600653346794	-10.942401602154723	806.101240805545	762.5821787785117	-18.268920200477172	824.5135275313144	825.8994921625058	4.503142508802655	817.2854102406418	795.9119735940599	4.356214335249086	813.5862520420187	778.0393806974614	-0.02052924223666075	812.8703916520564	768.6303518736463	-5.351371191291724	813.5720672300943	762.4233728034133	-11.753098877190205
318	1.321	1198.941	914.58397	126.699	1241.4945465541894	883.8656175119314	50.27879405510348	1143.5301537911907	490.5062961369008	-55.249031238863324	1143.4278827786386	99.57799226869456	-134.25433280873796	992.4566220046436	22.447265801319336	-45.954737106141756	1169.2686659855908	918.8642754526809	215.46789040406037	1078.574813040591	515.786381065318	284.0125009173521	994.7460876112473	89.92218715247921	354.6256482521949	874.5054754869932	6.437639085172737	231.70377685789978	1139.2282491951491	1033.8924999562043	75.07089350857883	1079.7821825921294	1089.5459382715217	22.0839440521082	1014.613672019056	1140.6495337624538	-36.05862877969313	947.9024745429265	1179.0558048373907	-95.36445003312416	875.4782127733407	1220.444384173539	-157.17425285041762	808.2284112580473	1258.999899096934	-211.0610062757346	675.0598245593108	1343.0854865667568	-233.95929791938536	910.29966805128	1191.0575398994547	-159.35089906706028	912.8804062922504	1103.3556639435988	-235.49199208981707	881.79069360274	942.8033123604322	-74.92592331445657	792.0915194014485	817.7106136562483	-8.366176517471658	788.0865637538698	828.3091771261705	1.2954778526162225	787.9531063533866	827.0885465315371	13.940972127053001	787.9388856565446	822.7531267621385	22.871470837575032	787.9943717053693	816.1572198775755	30.422684229961266	787.5595156100591	816.9407875921507	2.542328542362925	782.8387272308327	802.1723860389183	20.041511064676698	781.9133198975203	791.0758888514767	32.671891662761375	782.935484251086	787.7126967424908	39.313646902098164	784.8590871855017	787.3137818115505	43.994461729637166	788.0500884738778	807.9362078436491	2.2925287361141318	783.7102560001581	788.6612123580504	19.225453966647592	782.7834406639072	775.4114687333711	32.91856545237945	784.0564832870398	770.8062576822109	40.8888009546957	786.1806102202827	770.103548339185	45.98966396382742	788.4927635871535	801.9339373818334	1.6691963083336234	784.9163306906172	779.3983542741904	16.302483355781934	784.2004497238312	766.7139279606073	28.119638588424202	785.4772222217308	761.6686130445811	35.74500315646802	787.4975825428481	760.7220390169161	40.51144707001405	789.331836953146	795.5809591665221	0.4461785997179093	786.4854961494107	770.9317029812782	13.118393700867367	786.0714490594042	759.1007374914169	22.333525819465017	787.0797469471554	754.6110221726634	27.775721673434866	788.9137730931425	753.3065466993384	31.92908346430455	889.0983950745552	1222.9111227828123	-113.00351452946971	870.5442119323119	1258.9106207460406	-6.815564721066909	897.6241211645809	1043.0638914942415	23.115579384871417	832.3987669136453	848.2626459085657	2.3862663333951453	820.0557687523035	852.2771844300543	-1.3075600398101654	813.4121468134463	840.4315424188349	-11.571876336210922	809.3223627849518	829.0007997381645	-18.144110244692275	806.3721431452819	816.7498477839829	-23.13048518307077	820.2307743100871	841.7974020634026	1.2306603270053538	806.2978404919342	817.7059367387787	-1.920599972069617	799.8973996504276	797.9681634709282	-8.455755427971248	798.3710028498182	788.5265656234599	-15.126635611305414	798.7620749550446	782.6202650211934	-22.40728459456377	822.3324697421884	833.8416456990797	2.7001387967353256	809.8785770053059	806.0411369986058	0.4225684053811891	803.2210482229461	783.5279780687266	-6.5098955078631455	801.5362572450763	771.6690316553018	-14.462727736015724	802.0403537325101	764.9789450125558	-22.382729569537307	824.1401432907437	828.8402710394078	3.865962288519265	814.4524090222751	799.597338910484	2.9750097313984796	809.0035156873989	779.0216895544625	-2.8612036940180863	807.5663091056167	767.076635689619	-10.422873496670586	808.1293346782738	760.5464223598427	-17.81780170311555	826.8850304464761	823.7376995099849	4.928893583361324	819.5774057532318	793.7781680326365	4.924459026987759	815.808639813115	775.9424799095897	0.5761915114998031	815.0479173806283	766.5721022097194	-4.7820267575762845	815.7121786528031	760.4089284292049	-11.242211224963583
